<?xml version="1.0" encoding="utf-8"?><!-- Uploaded to: SVG Repo, www.svgrepo.com, Generator: SVG Repo Mixer Tools -->
<svg viewBox="0 0 24 24" id="Flat_Color" data-name="Flat Color" xmlns="http://www.w3.org/2000/svg" fill="#000000"><g id="SVGRepo_bgCarrier" stroke-width="0"></g><g id="SVGRepo_tracerCarrier" stroke-linecap="round" stroke-linejoin="round" stroke="#935732" stroke-width="3.9839999999999995"><path id="primary" d="M17.71,7.29a1,1,0,0,0-1-.25,1,1,0,0,0-.7.73,4.37,4.37,0,0,1-.45,1.13,10.89,10.89,0,0,0-5-6.73A1,1,0,0,0,9,3,7.1,7.1,0,0,1,6.6,8.38C5.38,9.71,4,11.22,4,14c0,5,3,8,8,8s8-2.91,8-8C20,12,19,8.58,17.71,7.29Z" style="fill:#cd9a65"></path></g><g id="SVGRepo_iconCarrier"><path id="primary" d="M17.71,7.29a1,1,0,0,0-1-.25,1,1,0,0,0-.7.73,4.37,4.37,0,0,1-.45,1.13,10.89,10.89,0,0,0-5-6.73A1,1,0,0,0,9,3,7.1,7.1,0,0,1,6.6,8.38C5.38,9.71,4,11.22,4,14c0,5,3,8,8,8s8-2.91,8-8C20,12,19,8.58,17.71,7.29Z" style="fill:#cd9a65"></path></g></svg>