<?xml version="1.0" encoding="utf-8"?><!-- Uploaded to: SVG Repo, www.svgrepo.com, Generator: SVG Repo Mixer Tools -->
<svg viewBox="0 0 1024 1024" class="icon" version="1.1" xmlns="http://www.w3.org/2000/svg" fill="#000000"><g id="SVGRepo_bgCarrier" stroke-width="0"></g><g id="SVGRepo_tracerCarrier" stroke-linecap="round" stroke-linejoin="round"></g><g id="SVGRepo_iconCarrier"><path d="M 224.855 -2.725 h 582.656 v 655.474 H 224.855 Z" fill="#e89f21"></path><path d="M 458.442 51.434 h 115.712 V 195.589 H 458.442 Z M 632.293 51.434 h 115.712 V 195.589 H 632.293 Z M 284.589 51.434 h 115.712 V 195.589 H 284.589 Z" fill="#e89f21"></path><path d="M 284.589 51.434 h 115.712 v 11.7191 H 284.589 Z" fill="#e89f21"></path><path d="M 284.589 51.434 h 10.1262 V 195.589 H 284.589 Z M 457.986 51.434 h 115.712 v 11.7191 H 457.986 Z" fill="#e89f21"></path><path d="M 457.986 51.434 h 10.1262 V 195.589 h -10.1262 Z M 632.293 51.434 h 115.712 v 11.7191 H 632.293 Z" fill="#e89f21"></path><path d="M 632.293 51.434 h 10.1262 V 195.589 h -10.1262 Z" fill="#e89f21"></path><path d="M 284.589 51.434 h 115.712 V 195.589 H 284.589 Z" fill="#e89f21"></path><path d="M 284.589 51.434 h 115.712 v 11.7191 H 284.589 Z" fill="#e89f21"></path><path d="M 284.589 51.434 h 10.1262 V 195.589 H 284.589 Z M 457.986 51.434 h 115.712 v 11.7191 H 457.986 Z" fill="#e89f21"></path><path d="M 457.986 51.434 h 10.1262 V 195.589 h -10.1262 Z M 632.293 51.434 h 115.712 v 11.7191 H 632.293 Z" fill="#e89f21"></path><path d="M 632.293 51.434 h 10.1262 V 195.589 h -10.1262 Z" fill="#e89f21"></path><path d="M 458.442 247.813 h 115.712 v 144.157 H 458.442 Z M 632.293 247.813 h 115.712 v 144.157 H 632.293 Z M 284.589 247.813 h 115.712 v 144.157 H 284.589 Z" fill="#e89f21"></path><path d="M 284.589 247.813 h 115.712 v 11.7191 H 284.589 Z" fill="#e89f21"></path><path d="M 284.589 247.813 h 10.1262 v 144.157 H 284.589 Z M 457.986 247.813 h 115.712 v 11.7191 H 457.986 Z" fill="#e89f21"></path><path d="M 457.986 247.813 h 10.1262 v 144.157 h -10.1262 Z M 632.293 247.813 h 115.712 v 11.7191 H 632.293 Z" fill="#e89f21"></path><path d="M 632.293 247.813 h 10.1262 v 144.157 h -10.1262 Z" fill="#e89f21"></path><path d="M 284.589 247.813 h 115.712 v 144.157 H 284.589 Z" fill="#e89f21"></path><path d="M 284.589 247.813 h 115.712 v 11.7191 H 284.589 Z" fill="#e89f21"></path><path d="M 284.589 247.813 h 10.1262 v 144.157 H 284.589 Z M 457.986 247.813 h 115.712 v 11.7191 H 457.986 Z" fill="#e89f21"></path><path d="M 457.986 247.813 h 10.1262 v 144.157 h -10.1262 Z M 632.293 247.813 h 115.712 v 11.7191 H 632.293 Z" fill="#e89f21"></path><path d="M 632.293 247.813 h 10.1262 v 144.157 h -10.1262 Z" fill="#e89f21"></path><path d="M 458.442 444.194 h 115.712 v 144.157 H 458.442 Z M 632.293 444.194 h 115.712 v 144.157 H 632.293 Z M 284.589 444.194 h 115.712 v 144.157 H 284.589 Z" fill="#e89f21"></path><path d="M 284.589 444.194 h 115.712 v 11.7191 H 284.589 Z" fill="#e89f21"></path><path d="M 284.589 444.194 h 10.1262 v 144.157 H 284.589 Z M 457.986 444.194 h 115.712 v 11.7191 H 457.986 Z" fill="#e89f21"></path><path d="M 457.986 444.194 h 10.1262 v 144.157 h -10.1262 Z M 632.293 444.194 h 115.712 v 11.7191 H 632.293 Z" fill="#e89f21"></path><path d="M 632.293 444.194 h 10.1262 v 144.157 h -10.1262 Z" fill="#e89f21"></path><path d="M 284.589 444.194 h 115.712 v 144.157 H 284.589 Z" fill="#e89f21"></path><path d="M 284.589 444.194 h 115.712 v 11.7191 H 284.589 Z" fill="#e89f21"></path><path d="M 284.589 444.194 h 10.1262 v 144.157 H 284.589 Z M 457.986 444.194 h 115.712 v 11.7191 H 457.986 Z" fill="#e89f21"></path><path d="M 457.986 444.194 h 10.1262 v 144.157 h -10.1262 Z M 632.293 444.194 h 115.712 v 11.7191 H 632.293 Z" fill="#e89f21"></path><path d="M 632.293 444.194 h 10.1262 v 144.157 h -10.1262 Z" fill="#e89f21"></path><path d="M 807.511 1015.7 H 224.855 v -362.951 l 582.656 -126.521 Z" fill="#e89f21"></path><path d="M 770.306 668.45 c -2.38933 -6.59911 -9.78489 -10.0124 -16.384 -7.62311 c -3.64089 1.36533 -6.25778 4.20978 -7.50933 7.50933 c -3.18578 -1.82045 -7.05422 -2.16178 -10.6951 -0.910222 c -6.59911 2.38933 -10.0124 9.78489 -7.62311 16.384 c 1.25155 3.41333 3.86845 5.80267 7.05422 7.39555 l 23.3245 10.24 l 10.9227 -22.6418 c 1.47911 -2.95822 2.16178 -6.82667 0.910222 -10.3538 Z" fill="#e89f21"></path><path d="M 396.66 828.877 c 0.796445 3.072 -0.455111 7.50933 -3.52711 13.0845 c -0.796445 1.36533 -1.70667 3.072 -2.95822 4.77867 c -1.13778 1.82045 -2.50311 3.64089 -3.86845 5.46133 c -1.36533 1.82045 -2.73067 3.75467 -4.096 5.57511 c -1.36533 1.82045 -2.73067 3.52711 -3.86845 5.00622 c -3.86845 4.89245 -8.07822 9.67111 -12.5155 14.336 s -9.10222 8.87467 -13.8809 12.7431 c -4.77867 3.86845 -9.67111 7.168 -14.6773 10.0124 c -5.00622 2.73067 -10.0124 4.77867 -15.0187 6.03022 c -5.46133 1.36533 -10.3538 1.70667 -14.7911 1.13778 c -4.43733 -0.568889 -8.30578 -1.93422 -11.6053 -4.20978 c -3.29955 -2.16178 -6.144 -5.23378 -8.53333 -8.87467 c -2.27555 -3.75467 -4.096 -8.07822 -5.34755 -13.0845 c -1.13778 -4.55111 -1.82045 -9.216 -2.048 -14.1085 c -0.227555 -4.89245 0 -9.89867 0.682667 -14.7911 c 0.682667 -5.00622 1.70667 -9.89867 3.072 -14.6773 c 1.47911 -4.77867 3.18578 -9.32978 5.23378 -13.6533 c 1.25155 -2.61689 2.61689 -5.34755 4.32355 -8.07822 c 1.70667 -2.73067 3.41333 -5.57511 5.34755 -8.30578 c 1.93422 -2.73067 3.86845 -5.34755 5.91645 -7.73689 c 2.048 -2.50311 4.096 -4.66489 6.144 -6.71289 c 1.36533 -1.25155 3.072 -2.84445 5.23378 -4.66489 s 4.32355 -3.52711 6.82667 -5.23378 c 2.38933 -1.70667 4.77867 -3.29955 7.28178 -4.66489 c 2.38933 -1.36533 4.66489 -2.27555 6.48533 -2.73067 c 3.072 -0.796445 5.57511 -1.13778 7.50933 -1.13778 c 1.93422 0 3.75467 0.341333 5.34755 0.910222 c 0.796445 0.341333 1.70667 0.910222 2.84445 1.70667 s 2.27555 1.70667 3.29955 2.73067 c 1.13778 1.024 2.048 2.16178 2.84445 3.18578 s 1.36533 2.048 1.59289 2.95822 c 0.227555 0.910222 0.113778 2.27555 -0.227555 4.096 s -0.910222 3.86845 -1.47911 6.03022 c -0.568889 2.048 -1.25155 4.096 -1.93422 5.91645 c -0.682667 1.82045 -1.25155 3.18578 -1.59289 3.86845 c -1.47911 2.73067 -3.41333 4.43733 -5.80267 5.00622 c -2.048 0.455111 -3.75467 0.227555 -5.12 -0.682667 c -1.47911 -0.910222 -2.38933 -2.38933 -2.84445 -4.20978 c -0.113778 -0.682667 0 -1.82045 0.341333 -3.29955 s 1.25155 -3.41333 2.61689 -5.68889 c 1.36533 -2.16178 2.27555 -4.20978 2.95822 -5.91645 c 0.568889 -1.70667 1.024 -2.84445 1.13778 -3.41333 c -1.13778 -0.455111 -2.50311 -0.682667 -4.096 -0.796445 c -1.59289 0 -2.95822 0.113778 -4.20978 0.455111 c -1.82045 0.455111 -3.98222 1.36533 -6.37155 2.95822 c -2.50311 1.47911 -4.89245 3.18578 -7.39555 5.23378 c -2.50311 2.048 -4.77867 4.096 -7.05422 6.37155 c -2.27555 2.27555 -4.096 4.32355 -5.57511 6.25778 c -4.096 5.57511 -7.73689 11.3778 -10.9227 17.408 c -3.18578 6.03022 -5.46133 12.4018 -6.82667 19.1147 c -0.568889 2.73067 -1.024 5.57511 -1.36533 8.53333 c -0.341333 2.95822 -0.568889 5.91645 -0.682667 8.87467 c -0.113778 2.95822 0 5.80267 0.227555 8.76089 c 0.227555 2.84445 0.682667 5.57511 1.36533 8.07822 c 0.682667 2.95822 1.70667 5.68889 3.072 8.07822 c 1.36533 2.38933 2.95822 4.32355 5.00622 5.80267 c 2.048 1.47911 4.43733 2.38933 7.28178 2.84445 c 2.84445 0.455111 6.03022 0.227555 9.78489 -0.796445 c 3.98222 -1.024 7.96445 -2.61689 11.9467 -4.77867 c 3.98222 -2.16178 7.85067 -4.66489 11.4915 -7.62311 c 3.75467 -2.95822 7.39555 -6.144 10.9227 -9.55733 c 3.52711 -3.41333 6.82667 -7.05422 10.0124 -10.5813 c 3.18578 -3.64089 6.144 -7.168 8.87467 -10.6951 c 2.73067 -3.52711 5.23378 -6.82667 7.50933 -9.89867 c 0.910222 -1.25155 1.93422 -2.61689 2.84445 -4.096 c 1.024 -1.47911 1.93422 -2.95822 2.95822 -4.43733 c 1.024 -1.47911 1.93422 -2.95822 2.84445 -4.32355 s 1.70667 -2.73067 2.38933 -3.98222 c 2.61689 0.568889 4.20978 1.93422 4.66489 4.096 Z M 527.618 795.426 c 0.227555 1.024 -0.113778 2.95822 -1.024 5.57511 c -0.341333 1.024 -0.796445 2.27555 -1.36533 3.52711 c -0.568889 1.36533 -1.25155 2.61689 -1.82045 3.98222 c -0.682667 1.36533 -1.25155 2.61689 -1.93422 3.86845 s -1.25155 2.27555 -1.82045 3.18578 c -2.16178 3.64089 -4.55111 7.28178 -7.168 10.8089 c -2.61689 3.52711 -5.34755 6.82667 -8.30578 9.78489 c -2.95822 2.95822 -6.144 5.57511 -9.55733 7.85067 s -7.05422 3.86845 -10.9227 4.89245 c -2.95822 0.682667 -5.68889 0.796445 -8.30578 0.341333 c -2.61689 -0.568889 -4.77867 -1.93422 -6.71289 -3.98222 s -3.64089 -4.66489 -5.00622 -7.62311 c -1.36533 -2.95822 -2.73067 -6.03022 -3.98222 -9.44355 c -0.227555 -0.568889 -0.455111 -1.36533 -0.796445 -2.38933 c -0.341333 -1.13778 -0.796445 -2.27555 -1.25155 -3.52711 c -0.455111 -1.25155 -0.910222 -2.61689 -1.47911 -3.98222 c -0.568889 -1.36533 -1.13778 -2.61689 -1.59289 -3.64089 c -0.568889 -1.13778 -1.024 -1.93422 -1.59289 -2.61689 c -0.455111 -0.682667 -0.910222 -0.910222 -1.36533 -0.796445 c -1.59289 0.341333 -3.41333 1.93422 -5.68889 4.77867 c -2.16178 2.73067 -4.43733 6.25778 -6.82667 10.4676 c -2.38933 4.20978 -4.77867 8.87467 -7.05422 13.9947 c -2.27555 5.12 -4.32355 10.24 -6.25778 15.36 c -1.59289 4.43733 -2.95822 8.87467 -4.096 13.1982 s -2.16178 8.192 -2.95822 11.3778 c -0.568889 1.47911 -1.25155 2.61689 -2.048 3.41333 c -0.796445 0.796445 -1.36533 1.13778 -1.82045 1.25155 c -0.796445 0.227555 -1.70667 0.227555 -2.61689 0 c -0.910222 -0.227555 -1.82045 -0.455111 -2.61689 -0.910222 c -0.796445 -0.455111 -1.59289 -1.024 -2.16178 -1.70667 s -1.024 -1.36533 -1.25155 -2.16178 c -0.113778 -0.682667 -0.341333 -1.70667 -0.455111 -3.29955 c -0.113778 -1.59289 -0.341333 -3.29955 -0.455111 -5.23378 c -0.113778 -1.93422 -0.341333 -3.98222 -0.568889 -6.03022 c -0.227555 -2.048 -0.341333 -3.98222 -0.568889 -5.68889 c -0.455111 -3.41333 -1.024 -7.168 -1.47911 -11.264 c -0.568889 -4.096 -1.13778 -8.192 -1.70667 -12.4018 c -0.568889 -4.096 -1.25155 -8.192 -1.82045 -12.1742 c -0.568889 -3.98222 -1.25155 -7.50933 -1.82045 -10.6951 c -0.227555 -1.024 -0.455111 -2.38933 -0.796445 -4.096 c -0.341333 -1.70667 -0.682667 -3.52711 -1.024 -5.57511 c -0.341333 -2.048 -0.796445 -4.096 -1.25155 -6.37155 c -0.455111 -2.27555 -0.910222 -4.43733 -1.25155 -6.48533 c -0.455111 -2.16178 -0.796445 -4.096 -1.13778 -5.91645 c -0.341333 -1.82045 -0.682667 -3.41333 -0.910222 -4.66489 c -0.341333 -1.47911 -0.568889 -2.73067 -0.682667 -3.98222 s -0.341333 -2.50311 -0.341333 -3.75467 c -0.113778 -1.25155 0 -2.50311 0.113778 -3.75467 c 0.113778 -1.25155 0.341333 -2.73067 0.682667 -4.32355 c 0.113778 -0.455111 0.341333 -1.13778 0.568889 -1.70667 c 0.341333 -0.682667 0.682667 -1.25155 1.13778 -1.93422 c 0.455111 -0.568889 1.024 -1.13778 1.59289 -1.59289 c 0.568889 -0.455111 1.25155 -0.796445 1.93422 -1.024 c 1.47911 -0.341333 2.95822 -0.113778 4.43733 0.796445 c 1.47911 0.910222 2.50311 2.27555 2.95822 4.43733 c 0.113778 0.682667 0.227555 1.59289 0.341333 2.73067 c 0 1.13778 0.113778 2.38933 0.113778 3.64089 v 6.25778 c 0.113778 2.16178 0.341333 4.66489 0.682667 7.39555 c 0.341333 2.73067 0.796445 5.57511 1.13778 8.41955 c 0.455111 2.84445 0.796445 5.57511 1.36533 8.41955 c 0.455111 2.73067 0.910222 5.23378 1.25155 7.39555 c 0.455111 2.50311 0.796445 4.77867 1.13778 6.94045 c 0.341333 2.16178 0.568889 4.32355 0.910222 6.48533 s 0.568889 4.32355 0.910222 6.48533 c 0.341333 2.16178 0.682667 4.55111 1.13778 7.05422 c 0.568889 3.86845 1.024 7.168 1.25155 10.1262 c 0.227555 2.95822 0.682667 5.46133 1.13778 7.50933 c 0.113778 0.341333 0.341333 0.568889 0.796445 0.910222 c 0.455111 0.341333 0.796445 0.455111 1.024 0.341333 l 0.341333 -0.113778 c 0.341333 -0.682667 0.682667 -1.59289 1.13778 -2.95822 c 0.455111 -1.25155 0.910222 -2.73067 1.47911 -4.20978 c 0.568889 -1.47911 1.13778 -3.18578 1.82045 -4.77867 s 1.25155 -3.18578 1.93422 -4.66489 c 0.682667 -1.47911 1.36533 -3.072 2.16178 -4.77867 s 1.59289 -3.41333 2.50311 -5.23378 c 0.910222 -1.82045 1.82045 -3.52711 2.73067 -5.34755 s 1.82045 -3.41333 2.73067 -5.00622 c 1.13778 -1.93422 2.50311 -3.98222 3.98222 -6.144 c 1.47911 -2.16178 3.072 -4.20978 4.89245 -6.144 c 1.70667 -1.93422 3.52711 -3.64089 5.46133 -5.00622 s 3.75467 -2.38933 5.68889 -2.84445 c 0.341333 -0.113778 0.796445 -0.113778 1.47911 0 c 0.682667 0.113778 1.25155 0.227555 1.93422 0.455111 s 1.36533 0.568889 1.93422 0.910222 c 0.682667 0.455111 1.13778 0.910222 1.59289 1.59289 c 1.70667 2.50311 3.072 5.00622 4.20978 7.62311 s 2.27555 5.34755 3.29955 8.30578 c 0.910222 2.50311 1.93422 5.00622 2.95822 7.73689 c 1.024 2.61689 2.048 5.00622 3.18578 7.05422 c 1.13778 2.048 2.27555 3.75467 3.52711 4.89245 s 2.50311 1.59289 3.86845 1.25155 c 6.144 -1.47911 11.8329 -4.43733 16.8391 -8.53333 c 2.61689 -2.16178 4.89245 -4.20978 6.71289 -6.144 c 1.82045 -1.93422 3.52711 -3.86845 5.12 -5.68889 s 2.95822 -3.98222 4.43733 -6.25778 c 1.47911 -2.27555 3.072 -4.77867 5.00622 -7.73689 c 3.75467 -5.68889 6.03022 -8.64711 6.82667 -8.87467 c 0.113778 -0.568889 0.796445 0.341333 1.25155 2.38933 Z" fill="#e89f21"></path><path d="M 618.527 758.448 c 0.227555 0.910222 0.227555 1.82045 0.113778 2.73067 c -0.113778 1.024 -0.455111 1.93422 -0.796445 2.95822 c -0.455111 1.024 -0.910222 1.93422 -1.36533 2.84445 c -0.568889 0.910222 -1.13778 1.70667 -1.82045 2.27555 c -1.47911 1.59289 -3.75467 3.18578 -6.71289 4.89245 c -3.072 1.70667 -6.94045 3.072 -11.7191 4.32355 c -3.86845 0.910222 -7.85067 1.36533 -11.9467 1.36533 c -4.096 0 -8.192 -0.682667 -12.4018 -2.048 c 1.59289 1.47911 2.73067 2.95822 3.52711 4.55111 c 0.682667 1.47911 1.36533 3.41333 1.93422 5.57511 c 1.024 3.98222 1.024 8.41955 0.113778 13.4258 c -0.796445 5.00622 -2.38933 9.89867 -4.55111 14.4498 c -2.16178 4.66489 -4.66489 8.64711 -7.50933 12.0605 c -1.59289 1.93422 -3.41333 3.75467 -5.46133 5.46133 c -2.048 1.70667 -4.32355 3.18578 -6.71289 4.43733 c -2.38933 1.36533 -4.89245 2.50311 -7.62311 3.52711 c -2.73067 1.024 -5.46133 1.82045 -8.30578 2.61689 c -1.93422 0.455111 -3.98222 0.341333 -6.25778 -0.455111 c -2.16178 -0.796445 -4.20978 -1.93422 -6.144 -3.41333 c -1.93422 -1.47911 -3.52711 -3.072 -5.00622 -4.89245 c -1.36533 -1.82045 -2.27555 -3.64089 -2.73067 -5.23378 c -1.024 -4.096 -1.47911 -8.07822 -1.25155 -12.1742 s 0.682667 -7.96445 1.70667 -11.9467 s 2.27555 -7.85067 3.86845 -11.8329 s 3.29955 -7.96445 5.23378 -11.9467 c 1.024 -2.27555 2.27555 -4.43733 3.86845 -6.71289 c 1.47911 -2.27555 3.072 -4.32355 4.89245 -6.25778 c 1.82045 -1.93422 3.64089 -3.64089 5.57511 -5.00622 c 1.93422 -1.36533 3.86845 -2.38933 5.91645 -2.84445 c 1.59289 -0.455111 3.072 -0.568889 4.32355 -0.341333 c 1.25155 0.113778 2.50311 0.568889 3.75467 1.13778 c 1.25155 0.568889 2.50311 1.36533 3.98222 2.38933 s 2.95822 2.048 4.77867 3.29955 c 0.568889 0.341333 1.93422 0.682667 4.20978 1.024 c 2.27555 0.341333 4.89245 0.682667 7.85067 0.796445 c 2.95822 0.113778 6.144 0.113778 9.32978 0 c 3.18578 -0.113778 6.144 -0.455111 8.64711 -1.13778 c 2.50311 -0.568889 4.77867 -1.25155 6.82667 -1.93422 c 2.048 -0.682667 4.096 -1.47911 5.91645 -2.38933 c 1.93422 -0.910222 3.75467 -1.93422 5.46133 -3.18578 c 1.82045 -1.13778 3.64089 -2.61689 5.68889 -4.096 c 0.455111 0.455111 0.682667 1.13778 0.796445 1.70667 Z m -51.8827 32.0853 c -0.341333 -1.36533 -0.796445 -2.95822 -1.47911 -4.66489 c -0.682667 -1.70667 -1.59289 -3.29955 -2.61689 -4.77867 c -1.024 -1.47911 -2.16178 -2.50311 -3.41333 -3.29955 c -1.25155 -0.796445 -2.61689 -0.796445 -4.096 -0.227555 c -2.50311 -0.341333 -4.66489 -0.796445 -6.48533 -1.47911 c -1.70667 -0.682667 -3.072 -0.796445 -3.86845 -0.682667 c -0.568889 0.113778 -1.25155 0.455111 -1.82045 1.024 s -1.25155 1.25155 -1.82045 2.048 s -1.13778 1.82045 -1.70667 2.84445 c -0.568889 1.024 -1.13778 2.16178 -1.59289 3.29955 c -1.024 2.38933 -1.93422 4.43733 -2.84445 6.37155 c -0.910222 1.93422 -1.70667 3.86845 -2.38933 5.68889 c -0.682667 1.82045 -1.47911 3.75467 -2.048 5.80267 c -0.682667 2.048 -1.25155 4.20978 -1.70667 6.59911 c -0.227555 1.024 -0.341333 2.16178 -0.455111 3.52711 v 4.096 c 0 1.36533 0.227555 2.73067 0.455111 4.096 c 0.227555 1.36533 0.455111 2.61689 0.682667 3.64089 c 0.113778 0.682667 0.568889 1.36533 1.25155 2.16178 c 0.682667 0.796445 1.47911 1.59289 2.50311 2.27555 c 0.910222 0.682667 1.93422 1.25155 3.072 1.59289 s 2.048 0.455111 2.95822 0.227555 c 2.61689 -0.682667 4.77867 -1.25155 6.48533 -1.93422 c 1.70667 -0.682667 3.29955 -1.47911 4.66489 -2.50311 c 1.36533 -0.910222 2.73067 -2.16178 4.096 -3.52711 c 1.36533 -1.36533 2.84445 -3.18578 4.43733 -5.23378 c 0.796445 -1.024 1.59289 -2.16178 2.27555 -3.41333 c 0.682667 -1.25155 1.47911 -2.61689 2.16178 -3.98222 c 0.682667 -1.36533 1.25155 -2.73067 1.82045 -4.096 c 0.568889 -1.36533 1.024 -2.73067 1.59289 -4.096 c 0.341333 -0.910222 0.568889 -1.93422 0.568889 -3.072 c 0.113778 -1.13778 0.113778 -2.38933 0 -3.52711 s -0.227555 -2.16178 -0.341333 -3.072 c -0.113778 -0.682667 -0.227555 -1.36533 -0.341333 -1.70667 Z" fill="#e89f21"></path><path d="M 699.536 750.37 c 0.455111 1.82045 0.227555 3.64089 -0.796445 5.34755 c -0.341333 0.568889 -0.910222 1.47911 -1.59289 2.50311 c -0.796445 1.024 -1.36533 2.048 -1.93422 2.95822 l -5.23378 8.64711 c -1.024 1.59289 -1.93422 3.072 -2.84445 4.43733 c -0.910222 1.36533 -1.59289 2.50311 -2.27555 3.41333 c -1.13778 1.59289 -2.50311 3.41333 -4.20978 5.68889 c -1.59289 2.16178 -3.52711 4.77867 -5.57511 7.62311 c -4.20978 5.57511 -8.07822 10.3538 -11.8329 14.2222 c -3.75467 3.86845 -7.96445 7.168 -12.6293 10.0124 c -4.66489 2.84445 -9.78489 5.00622 -15.4738 6.48533 c -3.41333 0.910222 -6.71289 1.13778 -9.78489 0.455111 c -3.072 -0.682667 -5.80267 -1.82045 -8.30578 -3.64089 c -2.38933 -1.82045 -4.55111 -4.096 -6.25778 -6.82667 s -2.95822 -5.80267 -3.75467 -9.216 c -1.70667 -6.71289 -1.93422 -13.7671 -0.682667 -21.1627 c 1.13778 -7.39555 3.29955 -14.9049 6.48533 -22.6418 c 1.70667 -4.096 3.98222 -8.07822 6.82667 -12.0605 s 5.68889 -6.37155 8.53333 -7.05422 c 1.59289 -0.341333 3.64089 0.455111 6.37155 2.61689 c 1.36533 1.024 2.61689 2.27555 3.86845 3.52711 s 2.50311 2.61689 3.64089 4.096 c 2.27555 2.84445 3.64089 5.12 3.98222 6.48533 c 0.341333 1.47911 0.341333 3.41333 0 6.03022 c -0.341333 2.50311 -1.13778 3.98222 -2.38933 4.32355 c -1.82045 0.455111 -3.64089 -0.455111 -5.46133 -2.61689 c -0.910222 -1.13778 -1.59289 -2.048 -2.16178 -2.84445 c -0.455111 -0.796445 -1.024 -1.70667 -1.59289 -2.61689 c -1.93422 -2.73067 -3.41333 -4.66489 -4.55111 -5.80267 c -3.18578 1.47911 -5.57511 3.75467 -7.05422 6.94045 c -0.682667 1.59289 -1.47911 3.41333 -2.16178 5.57511 c -0.682667 2.16178 -1.36533 4.43733 -2.048 7.168 c -0.568889 2.048 -1.024 4.32355 -1.25155 6.82667 c -0.341333 2.50311 -0.455111 5.00622 -0.455111 7.50933 c 0 2.50311 0.113778 5.00622 0.341333 7.50933 c 0.227555 2.50311 0.568889 4.77867 1.13778 6.82667 c 0.682667 2.95822 2.73067 5.46133 5.91645 7.62311 c 3.18578 2.048 6.37155 2.73067 9.32978 1.93422 c 6.48533 -1.59289 12.288 -4.20978 17.5218 -7.96445 s 10.0124 -8.07822 14.4498 -13.1982 c 4.32355 -5.00622 8.64711 -10.5813 12.8569 -16.8391 c 2.16178 -3.18578 4.096 -6.144 6.03022 -8.87467 c 1.93422 -2.84445 3.75467 -5.46133 5.46133 -8.07822 c 2.84445 -4.096 5.57511 -6.48533 7.96445 -7.05422 c 0.796445 -0.227555 1.25155 0.341333 1.59289 1.70667 Z" fill="#e89f21"></path><path d="M 750.167 739.447 c 0.455111 1.59289 0.682667 3.18578 0.910222 4.66489 c 0.227555 1.47911 0.341333 2.95822 0.341333 4.43733 s 0 2.95822 -0.227555 4.43733 c -0.113778 1.47911 -0.455111 3.072 -0.796445 4.66489 c -0.341333 1.70667 -1.13778 3.86845 -2.50311 6.48533 c -1.36533 2.61689 -2.95822 5.46133 -5.00622 8.41955 c -2.048 2.95822 -4.32355 5.91645 -6.82667 8.98845 s -5.12 5.80267 -7.85067 8.41955 c -2.73067 2.61689 -5.46133 4.77867 -8.192 6.71289 c -2.73067 1.82045 -5.34755 3.072 -7.85067 3.75467 c -3.41333 0.796445 -6.48533 1.024 -9.216 0.455111 c -2.84445 -0.455111 -5.23378 -1.47911 -7.39555 -2.95822 c -2.16178 -1.47911 -3.86845 -3.18578 -5.34755 -5.34755 s -2.38933 -4.43733 -3.072 -6.82667 c -0.455111 -1.59289 -0.682667 -3.52711 -0.796445 -5.68889 a 68.2667 68.2667 0 0 1 0 -6.82667 c 0.113778 -2.38933 0.341333 -4.89245 0.682667 -7.39555 s 0.796445 -5.00622 1.25155 -7.39555 c 0.455111 -2.38933 1.024 -4.55111 1.59289 -6.59911 c 0.568889 -2.048 1.25155 -3.86845 1.93422 -5.34755 c 1.25155 -2.61689 2.84445 -5.34755 4.77867 -8.07822 s 4.20978 -5.23378 6.82667 -7.62311 c 2.61689 -2.38933 5.46133 -4.43733 8.53333 -6.37155 c 3.18578 -1.82045 6.48533 -3.18578 10.1262 -4.096 c 2.73067 -0.682667 5.57511 -0.682667 8.53333 0 c 2.95822 0.682667 5.68889 1.93422 8.30578 3.64089 s 4.89245 3.98222 6.94045 6.59911 c 2.16178 2.73067 3.52711 5.68889 4.32355 8.87467 Z m -11.1502 5.12 c -1.25155 -5.00622 -3.64089 -8.53333 -7.168 -10.6951 c -3.52711 -2.16178 -7.96445 -2.50311 -13.312 -1.13778 c -1.82045 0.455111 -3.52711 1.36533 -5.12 2.84445 c -1.59289 1.36533 -3.072 3.072 -4.43733 4.89245 c -1.36533 1.82045 -2.61689 3.75467 -3.64089 5.68889 c -1.024 1.93422 -1.93422 3.64089 -2.50311 5.12 c -0.682667 1.59289 -1.25155 3.52711 -1.82045 6.144 c -0.568889 2.50311 -1.13778 5.23378 -1.47911 7.96445 c -0.455111 2.84445 -0.682667 5.57511 -0.682667 8.30578 c 0 2.73067 0.113778 5.00622 0.682667 6.94045 c 0.341333 1.13778 0.796445 2.27555 1.59289 3.29955 c 0.796445 1.024 1.59289 1.93422 2.73067 2.73067 c 1.024 0.682667 2.27555 1.25155 3.52711 1.59289 c 1.25155 0.341333 2.61689 0.341333 4.096 0 c 1.47911 -0.341333 3.29955 -1.36533 5.46133 -2.84445 s 4.43733 -3.41333 6.71289 -5.57511 c 2.27555 -2.27555 4.55111 -4.77867 6.71289 -7.62311 s 4.096 -5.80267 5.57511 -8.98845 c 1.59289 -3.072 2.61689 -6.25778 3.29955 -9.44355 c 0.455111 -3.41333 0.455111 -6.37155 -0.227555 -9.216 Z" fill="#e89f21"></path></g></svg>