<?xml version="1.0" encoding="utf-8"?><!-- Uploaded to: SVG Repo, www.svgrepo.com, Generator: SVG Repo Mixer Tools -->
<svg viewBox="0 0 24 24" id="Flat_Color" data-name="Flat Color" xmlns="http://www.w3.org/2000/svg" fill="#935732" stroke="#935732"><g id="SVGRepo_bgCarrier" stroke-width="0"></g><g id="SVGRepo_tracerCarrier" stroke-linecap="round" stroke-linejoin="round"></g><g id="SVGRepo_iconCarrier"><path id="secondary" d="M20.24,20l-4.12-1,4.12-1A1,1,0,0,0,19.76,16L12,18,4.24,16A1,1,0,1,0,3.76,18l4.12,1L3.76,20A1,1,0,0,0,4,22a1,1,0,0,0,.24,0L12,20,19.76,22A1,1,0,0,0,21,21.24,1,1,0,0,0,20.24,20Z" style="fill:#e8b923ffffff"></path><path id="primary" d="M16,5.63a1,1,0,0,0-1-.26,1,1,0,0,0-.65.57,7.71,7.71,0,0,0-3.18-3.77A1,1,0,0,0,9.68,3,4.41,4.41,0,0,1,8.15,6.36a5.45,5.45,0,0,0-1.82,4A5.55,5.55,0,0,0,12,16c3.65,0,5.67-2,5.67-5.66A8.06,8.06,0,0,0,16,5.63Z" style="fill:#935732"></path></g></svg>